<?xml version="1.0" encoding="UTF-8"?>
<svg id="Layer_1" data-name="Layer 1" xmlns="http://www.w3.org/2000/svg" viewBox="0 0 183.39 27.91">
  <defs>
    <style>
      .cls-1 {
        fill: #db255e;
      }

      .cls-2 {
        fill: #fff;
        stroke: #fff;
        stroke-miterlimit: 10;
      }
    </style>
  </defs>
  <path class="cls-1" d="M145.84,23.4c-.3,0-.5,0-.7-.2s-.2-.4-.2-.7v-11.9c0-.3,0-.5.2-.7s.4-.2.7-.2h.9c.3,0,.5,0,.7.2s.2.4.2.7v11.9c0,.3,0,.5-.2.7s-.4.2-.7.2h-.9Z"/>
  <path class="cls-1" d="M158.44,23.7c-1,0-1.9-.2-2.8-.6-.9-.4-1.6-.9-2.3-1.5-.6-.6-1.2-1.4-1.5-2.3-.4-.9-.6-1.8-.6-2.8s.2-1.9.6-2.8c.4-.9.9-1.6,1.5-2.3.6-.6,1.4-1.2,2.3-1.5.9-.4,1.8-.6,2.8-.6s1.9.2,2.8.6c.9.4,1.6.9,2.3,1.5.6.6,1.2,1.4,1.5,2.3.4.9.6,1.8.6,2.8s-.2,1.9-.6,2.8c-.4.9-.9,1.6-1.5,2.3-.6.6-1.4,1.2-2.3,1.5-.9.4-1.8.6-2.8.6ZM158.44,21.1c.6,0,1.2-.1,1.7-.4.5-.2,1-.6,1.4-1s.7-.9.9-1.4c.2-.6.3-1.2.3-1.8s-.1-1.2-.3-1.8-.5-1-.9-1.4-.9-.7-1.4-1c-.5-.2-1.1-.4-1.7-.4s-1.2.1-1.7.4c-.5.2-1,.6-1.4,1s-.7.9-.9,1.4c-.2.6-.3,1.2-.3,1.8s.1,1.2.3,1.8.5,1,.9,1.4.9.7,1.4,1c.5.2,1.1.4,1.7.4Z"/>
  <path class="cls-2" d="M110.14,23.4c-.3,0-.5,0-.7-.2s-.2-.4-.2-.7v-9.9c0-.2,0-.3-.3-.3h-1.5c-.3,0-.5,0-.7-.2s-.2-.4-.2-.7v-.8c0-.3,0-.5.2-.7s.4-.2.7-.2h1.5c.2,0,.3,0,.3-.3v-1.5c0-.7,0-1.4.3-2.1.2-.6.5-1.2,1-1.6s.9-.8,1.5-1.1c.6-.3,1.3-.4,2-.4h.6c.3,0,.5,0,.7.2s.2.4.2.7v.8c0,.3,0,.5-.2.7s-.4.2-.7.2h-.5c-.8,0-1.3.2-1.7.7-.4.5-.6,1.1-.6,1.9v1.5c0,.2,0,.3.3.3h2.4c.3,0,.5,0,.7.2.2.2.2.4.2.7v.8c0,.3,0,.5-.2.7s-.4.2-.7.2h-2.4c-.2,0-.3.1-.3.3v9.9c0,.3,0,.5-.2.7s-.4.2-.7.2h-.9.1Z"/>
  <path class="cls-2" d="M126.64,10.6c0-.3,0-.5.2-.7s.4-.2.7-.2h.9c.3,0,.5,0,.7.2s.2.4.2.7v7.6c0,.7,0,1.4-.4,2.1s-.6,1.3-1.1,1.7c-.5.5-1.1.9-1.7,1.2-.7.3-1.4.4-2.3.4s-1.6-.1-2.3-.4c-.7-.3-1.3-.7-1.7-1.2-.5-.5-.9-1.1-1.1-1.7-.3-.7-.4-1.4-.4-2.1v-7.6c0-.3,0-.5.2-.7s.4-.2.7-.2h.9c.3,0,.5,0,.7.2s.2.4.2.7v7.6c0,.8.2,1.4.7,2s1.2.9,2.1.9,1.7-.3,2.1-.9.7-1.3.7-2v-7.6h0Z"/>
  <path class="cls-2" d="M133.44,20.3c.3-.4.8-.4,1.2,0,.2.2.5.3.8.5s.7.2,1.1.2,1-.1,1.4-.4c.4-.2.5-.6.5-1s-.2-.7-.5-1-.9-.6-1.7-1.1c-.5-.3-1-.5-1.5-.8-.4-.3-.8-.6-1.1-.9-.3-.3-.5-.7-.7-1.1-.2-.4-.2-.9-.2-1.4s0-1.1.3-1.5c.2-.5.5-.9.9-1.3.4-.4.8-.7,1.4-.9.5-.2,1.1-.3,1.8-.3s1.5.2,2.2.5c.6.3,1.1.6,1.4.9.2.2.2.4.3.7,0,.2,0,.4-.3.6l-.5.6c-.2.2-.4.3-.6.3s-.4,0-.6-.2c-.5-.5-1.2-.8-1.8-.8s-1,.1-1.3.4c-.3.3-.4.6-.4,1s.2.8.6,1c.4.3.9.6,1.5.8s1.1.5,1.5.8c.5.3.8.6,1.2.9.3.3.6.7.8,1.1s.3.9.3,1.4-.1,1.3-.4,1.8c-.3.5-.6,1-1,1.3-.4.4-.9.6-1.5.8-.6.2-1.1.3-1.7.3-.9,0-1.7-.1-2.3-.4s-1.1-.6-1.5-1c-.2-.2-.2-.4-.3-.6,0-.2,0-.5.3-.6l.5-.7h0l-.1.1Z"/>
  <path class="cls-2" d="M178.34,23.4c-.3,0-.5,0-.7-.2s-.2-.4-.2-.7v-7.6c0-.8-.2-1.4-.7-2s-1.2-.9-2.2-.9-1.7.3-2.2.9c-.5.6-.7,1.3-.7,2v7.6c0,.3,0,.5-.2.7s-.4.2-.7.2h-.9c-.3,0-.5,0-.7-.2s-.2-.4-.2-.7v-7.6c0-.7.1-1.4.4-2.1s.7-1.3,1.1-1.7c.5-.5,1.1-.9,1.8-1.2s1.5-.4,2.3-.4,1.6,0,2.3.4c.7.4,1.3.7,1.8,1.2s.9,1.1,1.1,1.7.4,1.4.4,2.1v7.6c0,.3,0,.5-.2.7s-.4.2-.7.2h-.9Z"/>
  <path class="cls-2" d="M14.84,23.4c-.3,0-.5,0-.7-.3-.2-.2-.2-.4-.2-.6s0-.2-.1-.2c0,0-.2,0-.3.1-.3.4-.7.7-1.3.9-.6.2-1.2.4-2,.4s-1.4-.1-1.9-.4c-.6-.3-1.1-.6-1.5-1.1s-.8-1.1-1-1.7c-.2-.7-.4-1.4-.4-2.2v-2.7c0-.8,0-1.5.4-2.3.3-.7.7-1.3,1.2-1.8.5-.5,1.1-.9,1.8-1.2.7-.3,1.5-.5,2.3-.5h4.5c.3,0,.5,0,.7.2s.2.4.2.7v11.9c0,.3,0,.5-.2.7s-.4.2-.7.2h-.9.1v-.1ZM13.94,12.6c0-.2-.1-.3-.3-.3h-2.3c-1,0-1.8.3-2.4.9-.6.6-.8,1.4-.8,2.3v3c0,.8.2,1.4.7,1.9s1.1.7,1.9.7,1,0,1.4-.3c.4-.2.7-.4,1-.8.3-.3.5-.7.6-1.1s.2-.8.2-1.2v-5.1h0Z"/>
  <path class="cls-2" d="M29.04,10.6c0-.3,0-.5.2-.7s.4-.2.7-.2h.9c.3,0,.5,0,.7.2s.2.4.2.7v7.6c0,.7-.1,1.4-.4,2.1s-.6,1.3-1.1,1.7c-.5.5-1.1.9-1.7,1.2-.7.3-1.4.4-2.3.4s-1.6-.1-2.3-.4c-.7-.3-1.3-.7-1.7-1.2-.5-.5-.9-1.1-1.1-1.7-.3-.7-.4-1.4-.4-2.1v-7.6c0-.3,0-.5.2-.7s.4-.2.7-.2h.9c.3,0,.5,0,.7.2s.2.4.2.7v7.6c0,.8.2,1.4.7,2s1.2.9,2.1.9,1.7-.3,2.1-.9.7-1.3.7-2v-7.6h0Z"/>
  <path class="cls-2" d="M44.94,20.7c.2.2.3.4.2.6,0,.2,0,.4-.3.6-.3.4-.9.8-1.6,1.2-.7.4-1.5.6-2.5.6s-1.7-.1-2.4-.4-1.3-.7-1.7-1.2c-.5-.5-.8-1.1-1-1.7-.2-.7-.3-1.4-.3-2.1v-3.3c0-.7.1-1.4.4-2.1s.6-1.3,1.1-1.7c.5-.5,1-.9,1.7-1.2s1.4-.4,2.3-.4,1.6,0,2.2.4c.6.3,1.2.7,1.6,1.1.2.2.3.4.3.6s0,.5-.3.6l-.6.6c-.4.4-.8.4-1.2,0s-.5-.4-.9-.5c-.4-.2-.7-.2-1.1-.2-1,0-1.7.3-2.1.9-.4.6-.6,1.3-.6,2v4.4c0,.4.2.7.5.9.2.3.5.5.8.6.3.2.8.2,1.3.2s1-.1,1.4-.3c.4-.2.7-.4.9-.6.5-.4.9-.4,1.3,0l.5.5h0l.1-.1Z"/>
  <path class="cls-2" d="M53.64,23.4c-1.5,0-2.6-.4-3.4-1.2-.7-.8-1.1-2-1.1-3.5v-6.1c0-.2,0-.3-.3-.3h-.9c-.3,0-.5,0-.7-.2s-.2-.4-.2-.7v-.8c0-.3,0-.5.2-.7s.4-.2.7-.2h.9c.2,0,.3,0,.3-.3v-2.1c0-.3,0-.5.2-.7s.4-.2.7-.2h.9c.3,0,.5,0,.7.2s.2.4.2.7v2.1c0,.2,0,.3.3.3h2.3c.3,0,.5,0,.7.2s.2.4.2.7v.8c0,.3,0,.5-.2.7s-.4.2-.7.2h-2.3c-.2,0-.3.1-.3.3v5.9c0,.7,0,1.3.4,1.7.3.4.8.6,1.6.6h.6c.3,0,.5,0,.7.2s.2.4.2.7v.8c0,.3,0,.5-.2.7s-.4.2-.7.2h-.9.1Z"/>
  <path class="cls-2" d="M59.64,23.4c-.3,0-.5,0-.7-.2s-.2-.4-.2-.7v-11.9c0-.3,0-.5.2-.7s.4-.2.7-.2h.9c.3,0,.5,0,.7.2s.2.4.2.7v11.9c0,.3,0,.5-.2.7s-.4.2-.7.2h-.9Z"/>
  <path class="cls-2" d="M72.34,23.7c-1,0-1.9-.2-2.8-.6s-1.6-.9-2.3-1.5-1.2-1.4-1.5-2.3c-.4-.9-.6-1.8-.6-2.8s.2-1.9.6-2.8c.4-.9.9-1.6,1.5-2.3.6-.6,1.4-1.2,2.3-1.5.9-.4,1.8-.6,2.8-.6s1.9.2,2.8.6c.9.4,1.6.9,2.3,1.5.6.6,1.2,1.4,1.5,2.3.4.9.6,1.8.6,2.8s-.2,1.9-.6,2.8-.9,1.6-1.5,2.3c-.6.6-1.4,1.2-2.3,1.5-.9.4-1.8.6-2.8.6ZM72.34,21.1c.6,0,1.2-.1,1.7-.4.5-.2,1-.6,1.4-1s.7-.9.9-1.4c.2-.6.3-1.2.3-1.8s0-1.2-.3-1.8c-.2-.6-.5-1-.9-1.4s-.9-.7-1.4-1c-.5-.2-1.1-.4-1.7-.4s-1.2.1-1.7.4c-.5.2-1,.6-1.4,1s-.7.9-.9,1.4c-.2.6-.3,1.2-.3,1.8s0,1.2.3,1.8.5,1,.9,1.4.9.7,1.4,1c.5.2,1.1.4,1.7.4Z"/>
  <path class="cls-2" d="M92.24,23.4c-.3,0-.5,0-.7-.2s-.2-.4-.2-.7v-7.6c0-.8-.2-1.4-.7-2s-1.2-.9-2.2-.9-1.7.3-2.2.9c-.5.6-.7,1.3-.7,2v7.6c0,.3,0,.5-.2.7s-.4.2-.7.2h-.9c-.3,0-.5,0-.7-.2s-.2-.4-.2-.7v-7.6c0-.7,0-1.4.4-2.1.3-.7.7-1.3,1.1-1.7.5-.5,1.1-.9,1.8-1.2.7-.3,1.5-.4,2.3-.4s1.6,0,2.3.4c.7.3,1.3.7,1.8,1.2s.9,1.1,1.1,1.7c.3.7.4,1.4.4,2.1v7.6c0,.3,0,.5-.2.7s-.4.2-.7.2h-.9Z"/>
</svg>